P3
#Running parameters: -h 4 -w 3 -o tests/output/output.ppm ../DataSets/crimes_20.crm ../DataSets/crimes_20.crm
3 4
255
0 255 255 0 255 0 0 0 255 128 255 0 255 0 0 0 0 255 0 255 255 0 255 255 0 0 255 0 0 255 0 0 255 0 0 255 