P3
#Running parameters: -h 37 -w 45 -o tests/output/output.ppm ../DataSets/crimes_all.crm
45 37
255
0 0 255 0 0 255 0 0 255 0 0 255 0 0 255 0 0 255 0 0 255 0 0 255 0 0 255 0 0 255 0 0 255 0 0 255 0 0 255 0 0 255 0 0 255 0 0 255 0 0 255 0 0 255 0 0 255 0 0 255 0 0 255 0 255 127 0 255 255 0 0 255 0 0 255 0 0 255 0 0 255 0 0 255 0 0 255 0 0 255 0 0 255 0 0 255 0 0 255 128 255 0 128 255 0 0 255 0 0 255 127 0 0 255 0 0 255 0 0 255 0 0 255 0 0 255 0 0 255 0 0 255 0 0 255 0 0 255 0 0 255 0 0 255 0 0 255 0 0 255 0 0 255 0 0 255 0 0 255 0 0 255 0 0 255 0 0 255 0 0 255 0 0 255 0 0 255 0 0 255 0 0 255 0 0 255 0 0 255 0 0 255 0 0 255 0 255 127 0 255 127 0 0 255 0 0 255 0 0 255 0 0 255 0 0 255 0 0 255 0 0 255 0 0 255 0 0 255 0 255 255 128 255 0 255 255 0 255 255 0 128 255 0 0 255 127 0 0 255 0 0 255 0 0 255 0 0 255 0 0 255 0 0 255 0 0 255 0 0 255 0 0 255 0 0 255 0 0 255 0 0 255 0 0 255 0 0 255 0 0 255 0 0 255 0 0 255 0 0 255 0 0 255 0 0 255 0 0 255 0 0 255 0 0 255 0 0 255 0 0 255 0 0 255 0 0 255 0 255 0 128 255 0 128 255 0 128 255 0 128 255 0 128 255 0 0 128 255 0 0 255 255 255 0 255 255 0 255 255 0 128 255 0 128 255 0 128 255 0 0 255 255 0 255 127 0 255 0 0 255 127 0 0 255 0 0 255 0 0 255 0 0 255 0 0 255 0 0 255 0 0 255 0 0 255 0 0 255 0 0 255 0 0 255 0 0 255 0 0 255 0 0 255 0 0 255 0 0 255 0 0 255 0 0 255 0 0 255 0 0 255 0 0 255 0 0 255 0 0 255 0 0 255 0 0 255 0 0 255 0 0 255 0 0 255 0 0 255 128 255 0 255 255 0 255 255 0 255 127 0 128 255 0 0 0 255 255 255 0 255 127 0 255 255 0 128 255 0 0 128 255 0 0 255 0 0 255 0 0 255 0 0 255 0 0 255 0 0 255 0 0 255 0 0 255 0 0 255 0 0 255 0 0 255 0 0 255 0 0 255 0 0 255 0 0 255 0 0 255 0 0 255 0 0 255 0 0 255 0 0 255 0 0 255 0 0 255 0 0 255 0 0 255 0 0 255 0 0 255 0 0 255 0 0 255 0 0 255 0 0 255 0 0 255 0 0 255 0 0 255 0 0 255 0 0 255 128 255 0 255 255 0 0 255 127 0 255 0 0 128 255 255 0 0 255 255 0 128 255 0 0 128 255 0 0 255 0 0 255 0 0 255 0 0 255 0 0 255 0 0 255 0 0 255 0 0 255 0 0 255 0 0 255 0 0 255 0 0 255 0 0 255 0 0 255 0 0 255 0 0 255 0 0 255 0 0 255 0 0 255 0 0 255 0 0 255 0 0 255 0 0 255 0 255 255 0 255 127 0 128 255 0 0 255 0 0 255 0 0 255 0 0 255 0 0 255 0 0 255 0 0 255 0 0 255 0 0 255 0 128 255 128 255 0 255 127 0 255 255 0 255 255 0 0 0 255 255 255 0 255 255 0 128 255 0 0 128 255 0 255 127 0 128 255 0 0 255 0 0 255 0 0 255 0 0 255 0 0 255 0 0 255 0 0 255 0 0 255 0 0 255 0 0 255 0 0 255 0 0 255 0 0 255 0 0 255 0 0 255 0 0 255 0 0 255 0 255 255 0 255 0 128 255 0 128 255 0 128 255 0 0 255 0 0 255 255 0 255 0 0 0 255 0 0 255 0 0 255 0 0 255 0 0 255 0 0 255 0 0 255 0 0 255 255 255 0 255 127 0 255 0 0 255 127 0 255 255 0 0 0 255 0 0 255 0 0 255 0 255 0 0 255 127 0 0 255 0 0 255 0 0 255 0 0 255 0 0 255 0 0 255 0 0 255 0 0 255 0 0 255 0 0 255 0 0 255 0 0 255 0 0 255 0 0 255 0 0 255 0 255 127 0 255 0 128 255 0 128 255 0 255 255 0 128 255 0 128 255 0 255 255 0 255 255 0 128 255 0 0 255 255 0 0 255 0 0 255 0 0 255 0 0 255 0 0 255 0 0 255 0 0 255 0 0 255 0 255 0 255 255 0 255 255 0 255 0 0 255 127 0 255 127 0 0 255 255 0 0 255 0 0 255 0 0 255 0 128 255 0 0 255 0 0 255 0 0 255 0 0 255 0 0 255 0 0 255 0 0 255 0 0 255 0 0 255 0 0 255 0 0 255 0 0 255 0 0 255 0 0 255 0 255 127 128 255 0 255 255 0 128 255 0 128 255 0 255 255 0 255 255 0 128 255 0 255 127 0 255 127 0 255 255 0 255 255 0 0 255 0 0 255 0 0 255 0 0 255 0 0 255 0 128 255 0 255 255 0 255 255 0 255 127 0 255 127 0 255 127 0 255 0 0 255 127 0 255 255 0 255 255 0 0 255 0 0 0 255 0 0 255 0 0 255 0 0 255 0 0 255 0 0 255 0 0 255 0 0 255 0 0 255 0 0 255 0 0 255 0 0 255 0 0 255 0 0 255 0 0 255 0 0 255 0 128 255 0 0 255 0 255 0 128 255 0 128 255 0 128 255 0 255 0 0 128 255 0 255 127 0 255 255 0 128 255 0 0 0 255 0 0 255 0 0 255 0 0 255 128 255 0 255 255 0 255 127 0 255 255 0 255 127 0 255 0 0 255 127 0 255 127 0 255 127 0 255 255 0 0 255 255 128 255 0 128 255 0 128 255 0 0 255 0 0 255 0 0 128 255 0 0 255 0 0 255 0 0 255 0 0 255 0 0 255 0 0 255 0 0 255 0 0 255 0 0 255 0 0 255 0 0 255 0 0 255 0 0 255 0 0 255 0 0 255 0 255 255 0 255 0 128 255 0 128 255 0 255 255 0 255 255 0 255 255 0 0 255 255 0 0 255 0 0 255 0 0 255 0 0 255 0 255 127 0 255 0 255 255 0 255 127 0 255 255 0 255 127 0 255 127 0 255 127 0 255 0 0 255 127 0 128 255 0 255 0 0 255 255 0 128 255 0 0 255 255 0 255 0 0 255 255 0 0 255 0 0 255 0 0 255 0 0 255 0 0 255 0 0 255 0 0 255 0 0 255 0 0 255 0 0 255 0 0 255 0 0 255 0 0 255 0 0 255 0 0 255 0 0 255 0 0 255 0 128 255 0 255 255 128 255 0 255 255 0 0 255 0 0 0 255 0 0 255 0 0 255 0 0 255 0 0 255 0 0 255 128 255 0 255 255 0 255 255 0 128 255 0 255 255 0 255 255 0 255 127 0 255 0 0 255 127 0 128 255 0 0 255 127 255 255 0 255 255 0 255 127 0 255 255 0 255 255 0 128 255 0 128 255 0 0 255 255 0 0 255 0 0 255 0 0 255 0 0 255 0 0 255 0 0 255 0 0 255 0 0 255 0 0 255 0 0 255 0 0 255 0 0 255 0 0 255 0 0 255 0 0 255 0 255 127 0 128 255 0 255 127 0 0 255 0 0 255 0 0 255 0 0 255 0 0 255 0 0 255 0 0 255 0 0 255 255 255 0 255 127 0 255 255 0 255 127 0 255 127 0 255 127 0 255 127 0 255 127 0 255 0 0 255 255 0 0 255 0 255 127 0 255 127 0 255 255 0 255 255 0 255 255 0 128 255 0 0 255 0 0 0 255 0 0 255 0 0 255 0 0 255 0 0 255 0 0 255 0 0 255 0 0 255 0 0 255 0 0 255 0 0 255 0 0 255 0 0 255 0 0 255 0 0 255 0 0 255 0 0 255 0 0 255 0 0 255 0 0 255 0 0 255 0 0 255 0 0 255 0 0 255 0 0 255 0 0 255 0 128 255 128 255 0 255 255 0 255 127 0 255 255 0 255 255 0 255 0 0 255 127 0 255 127 0 255 255 0 255 255 0 255 127 0 255 127 0 255 255 0 0 128 255 0 0 255 0 0 255 0 0 255 0 0 255 0 0 255 0 0 255 0 0 255 0 0 255 0 0 255 0 0 255 0 0 255 0 0 255 0 0 255 0 0 255 0 0 255 0 0 255 0 0 255 0 0 255 0 0 255 0 0 255 0 0 255 0 0 255 0 0 255 0 0 255 0 0 255 0 0 255 0 0 255 0 0 255 0 0 255 0 255 127 128 255 0 255 255 0 255 255 0 255 127 0 255 255 0 255 255 0 255 255 0 255 127 0 255 127 0 255 127 0 255 255 0 255 127 0 255 255 0 128 255 0 0 255 0 128 255 0 0 255 255 0 0 255 0 0 255 0 0 255 0 0 255 0 0 255 0 0 255 0 0 255 0 0 255 0 0 255 0 0 255 0 0 255 0 0 255 0 0 255 0 128 255 0 0 255 0 0 255 0 0 255 0 0 255 0 0 255 0 0 255 0 0 255 0 0 255 0 0 255 0 0 255 0 0 255 0 0 255 0 128 255 0 255 255 128 255 0 255 255 0 255 255 0 255 127 0 255 127 0 255 255 0 255 255 0 255 127 0 255 127 0 255 255 0 255 127 0 255 255 0 255 255 0 128 255 0 0 255 0 128 255 0 0 128 255 0 0 255 0 0 255 0 0 255 0 0 255 0 0 255 0 0 255 0 0 255 0 0 255 0 0 255 0 0 255 0 0 255 0 0 255 0 128 255 0 0 255 0 0 255 0 0 255 0 0 255 0 0 255 0 0 255 0 0 255 0 0 255 0 0 255 0 0 255 0 0 255 0 128 255 0 255 127 0 255 127 0 255 0 255 255 0 128 255 0 255 127 0 255 255 0 255 255 0 255 127 0 255 127 0 255 127 0 255 127 0 255 127 0 255 127 0 255 127 0 255 255 0 128 255 0 0 255 127 0 0 255 0 0 255 0 0 255 0 0 255 0 0 255 0 0 255 0 0 255 0 0 255 0 0 255 0 0 255 0 0 255 0 0 255 0 0 255 0 0 255 0 0 255 0 0 255 0 0 255 0 0 255 0 0 255 0 0 255 0 0 255 0 0 255 0 0 255 0 0 255 0 0 255 0 0 255 0 128 255 0 255 255 0 255 0 0 255 0 255 255 0 128 255 0 255 255 0 128 255 0 0 255 127 128 255 0 255 127 0 255 127 0 255 127 0 255 127 0 255 127 0 255 127 0 255 255 0 0 255 255 0 255 127 0 0 255 0 0 255 0 0 255 0 0 255 0 0 255 0 0 255 0 0 255 0 0 255 0 0 255 0 0 255 0 0 255 0 0 255 0 0 255 0 0 255 0 0 255 0 0 255 0 0 255 0 0 255 0 0 255 0 128 255 0 255 0 0 255 127 0 0 255 0 0 255 0 128 255 0 255 127 0 255 127 0 255 127 128 255 0 0 255 255 128 255 0 128 255 0 128 255 0 0 255 127 0 0 255 0 128 255 255 127 0 255 127 0 255 127 0 255 127 0 255 127 0 255 127 0 255 255 0 128 255 0 0 255 255 0 0 255 0 0 255 0 0 255 0 0 255 0 0 255 0 0 255 0 0 255 0 0 255 0 0 255 0 0 255 0 0 255 0 0 255 0 0 255 0 0 255 0 0 255 0 0 255 0 0 255 0 0 255 0 128 255 0 255 127 0 255 255 0 255 127 0 255 0 0 255 255 0 255 127 0 255 127 0 255 127 0 255 0 0 255 255 128 255 0 255 255 0 0 255 0 0 255 255 0 128 255 0 255 127 255 255 0 255 127 0 255 127 0 255 127 0 255 127 0 255 255 0 255 0 0 255 255 0 255 255 0 128 255 0 0 0 255 0 0 255 0 0 255 0 0 255 0 0 255 0 0 255 0 0 255 0 0 255 0 0 255 0 0 255 0 0 255 0 0 255 0 0 255 0 0 255 0 0 255 0 0 255 0 0 255 0 0 255 0 255 255 0 255 127 0 255 0 0 255 0 0 255 0 128 255 0 0 255 127 0 255 0 128 255 0 0 255 0 128 255 0 255 255 0 255 255 0 0 255 127 0 0 255 0 255 0 128 255 0 255 255 0 255 255 0 255 255 0 255 127 0 255 127 0 255 255 0 255 255 0 255 255 0 255 255 0 128 255 0 0 255 0 0 0 255 0 0 255 0 0 255 0 0 255 0 0 255 0 0 255 0 0 255 0 0 255 0 0 255 0 0 255 0 0 255 0 0 255 0 0 255 0 0 255 0 0 255 0 0 255 0 0 255 0 0 255 0 255 0 0 255 0 0 255 0 128 255 0 128 255 0 255 127 0 128 255 0 128 255 0 255 255 0 255 255 0 128 255 0 128 255 0 128 255 0 128 255 0 0 128 255 255 255 0 255 0 0 255 127 0 255 255 0 255 127 0 255 255 0 255 127 0 255 255 0 255 255 0 128 255 0 255 255 0 128 255 0 0 0 255 0 0 255 0 0 255 0 0 255 0 0 255 0 0 255 0 0 255 0 0 255 0 0 255 0 0 255 0 0 255 0 0 255 0 0 255 0 0 255 0 0 255 0 0 255 0 0 255 0 255 127 128 255 0 0 255 0 128 255 0 128 255 0 0 255 0 0 255 127 0 255 0 128 255 0 128 255 0 128 255 0 255 255 0 255 255 0 0 255 127 0 255 255 0 255 0 255 255 0 255 127 0 255 127 0 255 255 0 255 255 0 255 255 0 255 255 0 128 255 0 128 255 0 128 255 0 128 255 0 0 0 255 0 0 255 0 0 255 0 0 255 0 0 255 0 0 255 0 0 255 0 0 255 0 0 255 0 0 255 0 0 255 0 0 255 0 0 255 0 0 255 0 0 255 0 0 255 0 0 255 0 0 255 0 255 127 0 255 0 128 255 0 128 255 0 0 255 127 0 255 0 0 255 0 128 255 0 255 255 0 128 255 0 128 255 0 255 255 0 255 255 0 0 255 0 0 255 0 128 255 0 255 255 0 255 127 0 128 255 0 255 255 0 128 255 0 128 255 0 255 255 0 0 255 127 0 255 127 0 0 255 0 0 255 0 0 255 0 0 255 0 0 255 0 0 255 0 0 255 0 0 255 0 0 255 0 0 255 0 0 255 0 0 255 0 0 255 0 0 255 0 0 255 0 0 255 0 0 255 0 0 255 0 0 255 0 0 255 0 0 255 128 255 0 0 255 0 0 255 0 0 0 255 0 255 0 128 255 0 0 0 255 0 255 0 128 255 0 0 255 0 128 255 0 0 255 0 128 255 0 255 255 0 255 255 0 255 255 0 255 255 0 128 255 0 255 255 0 255 255 0 128 255 0 128 255 0 0 255 127 0 0 255 0 0 255 0 0 255 0 0 255 0 0 255 0 0 255 0 0 255 0 0 255 0 0 255 0 0 255 0 0 255 0 0 255 0 0 255 0 0 255 0 0 255 0 0 255 0 0 255 0 0 255 0 0 255 0 0 255 0 0 255 0 0 255 0 255 127 128 255 0 0 255 0 128 255 0 128 255 0 0 255 127 0 0 255 0 0 255 0 255 0 0 255 0 255 255 0 128 255 0 128 255 0 128 255 0 255 255 0 255 255 0 128 255 0 0 0 255 0 0 255 0 0 255 0 0 255 0 0 255 0 0 255 0 0 255 0 0 255 0 0 255 0 0 255 0 0 255 0 0 255 0 0 255 0 0 255 0 0 255 0 0 255 0 0 255 0 0 255 0 0 255 0 0 255 0 0 255 0 0 255 0 0 255 0 0 255 0 0 255 0 0 255 0 0 255 0 0 255 0 0 255 0 255 127 128 255 0 128 255 0 128 255 0 128 255 0 0 128 255 0 0 255 0 255 0 128 255 0 255 255 0 255 255 0 128 255 0 128 255 0 128 255 0 0 128 255 0 0 255 0 0 255 0 0 255 0 0 255 0 0 255 0 0 255 0 0 255 0 0 255 0 0 255 0 0 255 0 0 255 0 0 255 0 0 255 0 0 255 0 0 255 0 0 255 0 0 255 0 0 255 0 0 255 0 0 255 0 0 255 0 0 255 0 0 255 0 0 255 0 0 255 0 0 255 0 0 255 0 0 255 0 0 255 0 0 255 0 0 255 0 255 0 0 255 0 0 0 255 128 255 0 128 255 0 0 255 255 0 255 0 255 0 0 255 255 0 128 255 0 0 255 0 0 0 255 0 0 255 0 0 255 0 0 255 0 0 255 0 0 255 0 0 255 0 0 255 0 0 255 0 0 255 0 0 255 0 0 255 0 0 255 0 0 255 0 0 255 0 0 255 0 0 255 0 0 255 0 0 255 0 0 255 0 0 255 0 0 255 0 0 255 0 0 255 0 0 255 0 0 255 0 0 255 0 0 255 0 0 255 0 0 255 0 0 255 0 0 255 0 0 255 0 0 255 0 0 255 0 0 255 0 0 255 0 255 127 0 255 0 0 255 0 255 255 0 255 255 0 128 255 0 128 255 0 0 255 0 0 0 255 0 0 255 0 0 255 0 0 255 0 0 255 0 0 255 0 0 255 0 0 255 0 0 255 0 0 255 0 0 255 0 0 255 0 0 255 0 0 255 0 0 255 0 0 255 0 0 255 0 0 255 0 0 255 0 0 255 0 0 255 0 0 255 0 0 255 0 0 255 0 0 255 0 0 255 0 0 255 0 0 255 0 0 255 0 0 255 0 0 255 0 0 255 0 0 255 0 0 255 0 0 255 0 0 255 0 0 255 0 255 255 0 255 127 0 255 0 128 255 0 0 255 0 255 255 0 0 255 0 0 255 127 0 0 255 0 0 255 0 0 255 0 0 255 0 0 255 0 0 255 0 0 255 0 0 255 0 0 255 0 0 255 0 0 255 0 0 255 0 0 255 0 0 255 0 0 255 0 0 255 0 0 255 0 0 255 0 0 255 0 0 255 0 0 255 0 0 255 0 0 255 0 0 255 0 0 255 0 0 255 0 0 255 0 0 255 0 0 255 0 0 255 0 0 255 0 0 255 0 0 255 0 0 255 0 0 255 0 0 255 0 0 255 0 128 255 0 255 0 128 255 0 128 255 0 128 255 0 0 255 0 0 0 255 0 0 255 0 0 255 0 0 255 0 0 255 0 0 255 0 0 255 0 0 255 0 0 255 0 0 255 0 0 255 0 0 255 0 0 255 0 0 255 0 0 255 0 0 255 0 0 255 0 0 255 0 0 255 0 0 255 0 0 255 0 0 255 0 0 255 0 0 255 0 0 255 0 0 255 0 0 255 0 0 255 0 0 255 0 0 255 0 0 255 0 0 255 0 0 255 0 0 255 0 0 255 0 0 255 0 0 255 0 0 255 0 0 255 0 0 255 0 255 255 0 255 0 128 255 0 128 255 0 0 0 255 0 0 255 0 0 255 0 0 255 0 0 255 0 0 255 0 0 255 0 0 255 0 0 255 0 0 255 0 0 255 0 0 255 0 0 255 0 0 255 0 0 255 0 0 255 0 0 255 0 0 255 0 0 255 0 0 255 0 0 255 0 0 255 0 0 255 0 0 255 0 0 255 0 0 255 0 0 255 0 0 255 0 0 255 0 0 255 0 0 255 0 0 255 0 0 255 0 0 255 0 0 255 0 0 255 0 0 255 0 0 255 0 0 255 0 0 255 0 0 255 0 0 255 0 0 255 0 255 255 0 0 255 0 0 255 0 0 255 0 0 255 0 0 255 0 0 255 0 0 255 0 0 255 0 0 255 0 0 255 0 0 255 0 0 255 0 0 255 0 0 255 0 0 255 0 0 255 0 0 255 0 0 255 0 0 255 0 0 255 0 0 255 0 0 255 0 0 255 0 0 255 0 0 255 0 0 255 0 0 255 0 0 255 0 0 255 0 0 255 0 0 255 0 0 255 0 0 255 0 0 255 0 0 255 0 0 255 0 0 255 0 0 255 0 0 255 0 0 255 0 0 255 0 0 255 0 0 255 0 0 255 0 0 255 0 0 255 0 0 255 0 0 255 0 0 255 0 0 255 0 0 255 0 0 255 0 0 255 0 0 255 0 0 255 0 0 255 0 0 255 0 0 255 0 0 255 0 0 255 0 0 255 0 0 255 0 0 255 0 0 255 0 0 255 0 0 255 0 0 255 0 0 255 0 0 255 0 0 255 0 0 255 0 0 255 0 0 255 0 0 255 0 0 255 0 0 255 0 0 255 0 0 255 0 0 255 0 0 255 0 0 255 0 0 255 0 0 255 0 0 255 0 0 255 0 0 255 0 0 255 0 0 255 0 0 255 0 0 255 0 0 255 0 0 255 0 0 255 0 0 255 0 0 255 0 0 255 0 0 255 0 0 255 0 0 255 0 0 255 0 0 255 0 0 255 0 0 255 0 0 255 0 0 255 0 0 255 0 0 255 0 0 255 0 0 255 0 0 255 0 0 255 0 0 255 0 0 255 0 0 255 0 0 255 0 0 255 0 0 255 0 0 255 0 0 255 0 0 255 0 0 255 0 0 255 0 0 255 0 0 255 0 0 255 0 0 255 0 0 255 0 0 255 0 0 255 0 0 255 0 0 255 0 0 255 0 0 255 0 0 255 0 0 255 0 0 255 0 0 255 0 0 255 0 0 255 0 0 255 0 0 255 0 0 255 0 0 255 0 0 255 0 0 255 0 0 255 0 0 255 0 0 255 0 0 255 0 0 255 0 0 255 0 0 255 0 0 255 0 0 255 0 0 255 0 0 255 0 0 255 0 0 255 0 0 255 0 0 255 0 0 255 0 0 255 0 0 255 0 0 255 0 0 255 0 0 255 0 0 255 0 0 255 0 0 255 0 0 255 0 0 255 0 0 255 0 0 255 0 0 255 0 0 255 0 0 255 0 0 255 0 0 255 0 0 255 0 0 255 0 0 255 0 0 255 0 0 255 0 0 255 0 0 255 0 0 255 0 0 255 0 0 255 0 0 255 0 0 255 0 0 255 0 0 255 0 0 255 0 0 255 0 0 255 0 0 255 0 0 255 0 0 255 0 0 255 0 0 255 0 0 255 0 0 255 0 0 255 0 0 255 0 0 255 0 0 255 0 0 255 0 0 255 0 0 255 0 0 255 0 0 255 0 0 255 0 0 255 0 0 255 0 0 255 